<?xml version="1.0" encoding="UTF-8"?>
<svg xmlns="http://www.w3.org/2000/svg" width="24" height="24" viewBox="0 0 24 24" fill="none" aria-hidden="true">
  <!-- Monochrome 24px companion. The tree is compressed horizontally to reserve a right-side badge column. -->
  <g fill="#000000" transform="translate(0.15 0) scale(0.70 1)">
    <circle cx="5.0" cy="9.2" r="3.1"/>
    <circle cx="7.9" cy="6.4" r="3.2"/>
    <circle cx="11.5" cy="5.5" r="3.7"/>
    <circle cx="15.1" cy="6.8" r="3.2"/>
    <circle cx="17.5" cy="9.8" r="3.1"/>
    <ellipse cx="11.2" cy="10.4" rx="8.4" ry="4.4"/>
    <path d="M7.2 21.2c1.5-2.4 2.2-5.2 2.3-8 .1-1.5-.6-2.7-2.2-4.1l1.5-1.4c1.5 1.3 2.6 2.7 3.1 4.2.6-1.7 1.8-3.2 4-4.7l1.3 1.6c-2 1.5-2.9 3-2.8 4.8.2 2.7 1.1 5.2 2.6 7.6h-3.6c-.6-1.2-1.1-2.5-1.3-3.8-.3 1.4-.7 2.7-1.3 3.8H7.2Z"/>
    <path d="M6.4 21.2h4.4l1.1-1.7 1.1 1.7h4.7l-2-1.5-2 .4-1.8-2.1-1.6 2.1-2.1-.4-1.8 1.5Z"/>
  </g>

  <!-- Two equal-size circular badges, stacked vertically. -->
  <g stroke="#000000" fill="none" stroke-linecap="round" stroke-linejoin="round">
    <circle cx="19" cy="5.1" r="4" stroke-width="1.35"/>
    <path d="m16.8 5.1 1.45 1.45 2.95-3.35" stroke-width="1.35"/>

    <circle cx="19" cy="14.35" r="4" stroke-width="1.35"/>
    <path d="M16.2 14.35h2.2M17.3 13.25v2.2M19.6 14.35h2.2M20.7 13.25v2.2" stroke-width="1.1"/>
  </g>
</svg>
